Coordinates																	
version=1																	
nRows=18																	
nColumns=18																	
inDegrees=yes																	
																	
"Units are S.I. units (second, meters, Newtons, ...)"																	
"If the header above contains a line with 'inDegrees', this indicates whether rotational values are in degrees (yes) or radians (no)."																	
																	
endheader																	
time	/jointset/hip_l/hip_flexion_l/value	/jointset/hip_l/hip_adduction_l/value	/jointset/hip_l/hip_rotation_l/value	/jointset/hip_r/hip_flexion_r/value	/jointset/hip_r/hip_adduction_r/value	/jointset/hip_r/hip_rotation_r/value	/jointset/knee_l/knee_angle_l/value	/jointset/knee_r/knee_angle_r/value	/jointset/ankle_l/ankle_angle_l/value	/jointset/ankle_r/ankle_angle_r/value	/jointset/subtalar_l/subtalar_angle_l/value	/jointset/subtalar_r/subtalar_angle_r/value	/jointset/mtp_l/mtp_angle_l/value	/jointset/mtp_r/mtp_angle_r/value	/jointset/back/lumbar_extension/value	/jointset/back/lumbar_bending/value	/jointset/back/lumbar_rotation/value
12.51	-22.34792091	5.6516325	29.87873623	66.68026379	19.00270251	8.78666976	-25.69165682	-68.16572053	43.9741885	-48.00045406	5.62628441	-24.13094262	54.61569132	12.71819497	36.02997082	18.79841712	24.82249704
12.52	3.78594642	14.51212123	-0.26231183	63.05162273	-14.23453521	-14.22689104	-90.65337736	-64.57446329	24.83496046	0.39920967	-29.57565446	19.93248741	53.52577703	50.56620581	-36.31714834	-21.2734899	0.42355507
12.53	-23.69179962	13.81890612	33.10822139	-23.47665708	18.96299506	1.95264893	-25.65532227	-114.2431596	6.18250839	-8.30117687	-29.03250952	-3.84139573	25.13918938	32.2459833	-20.06368679	7.41287601	-2.09294437
12.54	42.52208149	12.11553123	24.11134234	-1.11850445	17.15872916	-12.30443712	-69.63507583	-56.4626532	-21.96918344	33.76358186	7.9086211	-0.66845683	48.57743957	-2.15705889	-4.36768137	-38.41052545	-27.810965
12.55	-10.39317364	4.01125764	-17.40265869	48.70808652	-11.77596468	-16.93972872	-72.4842934	-33.45318234	-40.94469809	11.17336197	20.3875772	31.53275158	16.16278769	35.89813963	-22.73848125	-44.93070579	-13.46364854
12.56	38.83203938	-11.58783094	-10.07199962	2.62327566	-3.36625956	32.30083516	7.7923831	-37.52143673	35.74433174	48.53195743	-22.798324	-22.02987985	30.94181535	13.51632927	-31.06486256	-22.01288401	35.69217314
12.57	45.15321125	-4.16068445	15.02748769	4.9571743	-18.91897627	3.12522633	-113.5410676	-38.71413506	-22.05091971	-44.30017009	26.23849632	-14.94359126	15.16243886	36.92230862	10.33606146	-31.20449257	-5.76678217
12.58	20.64392869	-14.14427877	-18.77903812	29.56592683	10.62263018	30.24560542	-77.37121327	-117.0002989	-25.85812316	-36.42344836	16.58857205	11.73958396	23.1791062	54.29841598	33.00984485	-16.4068932	-37.20650815
12.59	16.32297824	-11.81552759	23.69642961	42.36468983	14.95941278	-16.53841441	-64.53814764	-48.5925199	14.53613971	38.77281307	22.50439344	3.55996447	25.11139312	48.36209743	-20.17680064	6.23117983	-10.81752943
12.6	7.28017998	0.24530751	-4.77544269	-1.35886138	10.26944257	3.82277242	-86.00055916	-98.82928915	27.73957661	-22.30967803	-2.50837613	18.08371316	-0.22870855	45.35642758	-17.91994319	-30.50405246	2.50375135
12.61	67.43164044	3.42048698	-11.0887398	49.00326647	-12.6512497	17.36899821	-25.68411694	-119.1681615	-44.10292408	7.20839688	-21.65859181	-5.62988722	53.52034142	31.39125497	-42.16481602	-2.79373792	-31.87750485
12.62	45.80339088	-5.26841935	2.57892575	48.55225381	13.09153798	26.18958625	-89.1932089	-5.81691258	-39.08212292	-16.73082863	0.56615995	13.88798722	53.13379338	56.15231976	-12.39912576	42.47239515	7.68732846
12.63	66.76340227	6.03981917	16.81708665	-1.82549783	12.39357937	33.32498606	-24.91388486	-26.43062238	-22.13845283	-8.17435148	7.76902987	-8.84913577	-6.9842804	13.94081032	29.24906026	-1.76922236	-7.75246359
12.64	48.36324749	-19.45027255	-15.33775947	-6.75811093	0.93503908	21.91069458	-18.87562971	-89.25805288	-10.36640896	43.25385539	6.16557601	-6.13537109	-9.29647395	58.52863588	-0.34598298	11.27350313	-10.9028018
12.65	-24.75433433	8.35638874	31.1311243	-2.83494837	-4.10603953	20.11994159	-69.88058852	-98.51756387	22.19479935	40.15753768	-26.76903568	-18.68404328	2.11723832	6.07422453	41.07477632	-26.22750118	14.90390067
12.66	-24.58365052	13.64073704	8.12273107	32.87230274	-17.22003188	11.11693293	-113.334807	-50.70730592	-0.52582056	-38.10808599	-2.23354962	16.57637327	48.23620843	41.72619386	-3.78420964	-27.2484531	-40.52797775
12.67	11.04623677	-2.3331624	-17.12369546	-1.95841296	12.89297327	-5.93205357	-58.3887521	-34.28610764	28.1716741	23.58782872	-11.96384301	14.69384343	4.40950183	50.97568465	44.66330698	1.22375965	-21.03956423
12.68	4.46997693	-14.06929787	19.04727108	12.02745915	13.94606835	12.9149766	-84.85154294	-101.4693144	-8.26675314	17.15666456	23.18282064	8.95421307	2.63120714	27.6439986	43.74845624	32.42032754	33.77130772
